# Blender v2.79 (sub 0) OBJ File: ''
# www.blender.org
v 0.000000 -1.000000 -1.000000
v 0.000000 1.000000 -1.000000
v 0.195090 -1.000000 -0.980785
v 0.195090 1.000000 -0.980785
v 0.382683 -1.000000 -0.923880
v 0.382683 1.000000 -0.923880
v 0.555570 -1.000000 -0.831470
v 0.555570 1.000000 -0.831470
v 0.707107 -1.000000 -0.707107
v 0.707107 1.000000 -0.707107
v 0.831470 -1.000000 -0.555570
v 0.831470 1.000000 -0.555570
v 0.923880 -1.000000 -0.382683
v 0.923880 1.000000 -0.382683
v 0.980785 -1.000000 -0.195090
v 0.980785 1.000000 -0.195090
v 1.000000 -1.000000 -0.000000
v 1.000000 1.000000 -0.000000
v 0.980785 -1.000000 0.195090
v 0.980785 1.000000 0.195090
v 0.923880 -1.000000 0.382683
v 0.923880 1.000000 0.382683
v 0.831470 -1.000000 0.555570
v 0.831470 1.000000 0.555570
v 0.707107 -1.000000 0.707107
v 0.707107 1.000000 0.707107
v 0.555570 -1.000000 0.831470
v 0.555570 1.000000 0.831470
v 0.382683 -1.000000 0.923880
v 0.382683 1.000000 0.923880
v 0.195090 -1.000000 0.980785
v 0.195090 1.000000 0.980785
v -0.000000 -1.000000 1.000000
v -0.000000 1.000000 1.000000
v -0.195091 -1.000000 0.980785
v -0.195091 1.000000 0.980785
v -0.382684 -1.000000 0.923879
v -0.382684 1.000000 0.923879
v -0.555571 -1.000000 0.831469
v -0.555571 1.000000 0.831469
v -0.707107 -1.000000 0.707106
v -0.707107 1.000000 0.707106
v -0.831470 -1.000000 0.555570
v -0.831470 1.000000 0.555570
v -0.923880 -1.000000 0.382683
v -0.923880 1.000000 0.382683
v -0.980785 -1.000000 0.195089
v -0.980785 1.000000 0.195089
v -1.000000 -1.000000 -0.000001
v -1.000000 1.000000 -0.000001
v -0.980785 -1.000000 -0.195091
v -0.980785 1.000000 -0.195091
v -0.923879 -1.000000 -0.382684
v -0.923879 1.000000 -0.382684
v -0.831469 -1.000000 -0.555571
v -0.831469 1.000000 -0.555571
v -0.707106 -1.000000 -0.707108
v -0.707106 1.000000 -0.707108
v -0.555569 -1.000000 -0.831470
v -0.555569 1.000000 -0.831470
v -0.382682 -1.000000 -0.923880
v -0.382682 1.000000 -0.923880
v -0.195089 -1.000000 -0.980786
v -0.195089 1.000000 -0.980786
vt 0.588827 0.324883
vt 0.550874 0.009463
vt 0.588827 0.009463
vt 0.550874 0.324883
vt 0.513650 0.009463
vt 0.513650 0.324883
vt 0.478586 0.009463
vt 0.478586 0.324883
vt 0.447029 0.009463
vt 0.447029 0.324883
vt 0.420193 0.009463
vt 0.257259 0.990537
vt 0.225702 0.675117
vt 0.257259 0.675117
vt 0.225702 0.990537
vt 0.190638 0.675117
vt 0.190638 0.990537
vt 0.153414 0.675117
vt 0.153414 0.990537
vt 0.115461 0.675117
vt 0.115461 0.990537
vt 0.078237 0.675117
vt 0.078237 0.990537
vt 0.043173 0.675117
vt 0.043173 0.990537
vt 0.011616 0.675117
vt 0.420193 0.343808
vt 0.451749 0.659229
vt 0.420193 0.659229
vt 0.451749 0.343808
vt 0.486813 0.659229
vt 0.486813 0.343808
vt 0.524037 0.659229
vt 0.524037 0.343808
vt 0.561990 0.659229
vt 0.561990 0.343808
vt 0.599214 0.659229
vt 0.599214 0.343808
vt 0.634278 0.659229
vt 0.634278 0.343808
vt 0.665835 0.659229
vt 0.665835 0.343808
vt 0.692672 0.659229
vt 0.715904 0.343808
vt 0.747461 0.659229
vt 0.715904 0.659229
vt 0.747461 0.343808
vt 0.782525 0.659229
vt 0.782525 0.343808
vt 0.819749 0.659229
vt 0.819749 0.343808
vt 0.857702 0.659229
vt 0.857702 0.343808
vt 0.894926 0.659229
vt 0.894926 0.343808
vt 0.929990 0.659229
vt 0.929990 0.343808
vt 0.961547 0.659229
vt 0.961547 0.343808
vt 0.988384 0.659229
vt 0.719508 0.324883
vt 0.692671 0.009463
vt 0.719508 0.009463
vt 0.692672 0.324883
vt 0.661115 0.009463
vt 0.327109 0.044502
vt 0.396960 0.150955
vt 0.223265 0.323364
vt 0.661115 0.324883
vt 0.626051 0.009463
vt 0.626051 0.324883
vt 0.389556 0.453460
vt 0.260488 0.650160
vt 0.148088 0.348321
vt 0.420193 0.324883
vt 0.011616 0.990537
vt 0.692672 0.343808
vt 0.988384 0.343808
vt 0.185312 0.323364
vt 0.148088 0.317333
vt 0.113024 0.305502
vt 0.081467 0.288325
vt 0.054630 0.266464
vt 0.033545 0.240758
vt 0.019021 0.212195
vt 0.011616 0.181872
vt 0.011616 0.150955
vt 0.019020 0.120633
vt 0.033544 0.092069
vt 0.054630 0.066363
vt 0.081467 0.044502
vt 0.185312 0.009463
vt 0.113024 0.027325
vt 0.148088 0.015494
vt 0.223265 0.009463
vt 0.260488 0.015494
vt 0.295553 0.027325
vt 0.353946 0.066363
vt 0.375032 0.092069
vt 0.389556 0.120633
vt 0.396960 0.181872
vt 0.389556 0.212194
vt 0.375032 0.240758
vt 0.353946 0.266464
vt 0.327109 0.288325
vt 0.295553 0.305502
vt 0.260488 0.317333
vt 0.019020 0.545021
vt 0.011616 0.514699
vt 0.011616 0.483782
vt 0.019020 0.453460
vt 0.033544 0.424896
vt 0.054630 0.399190
vt 0.081467 0.377329
vt 0.113024 0.360153
vt 0.185312 0.342290
vt 0.223265 0.342290
vt 0.260488 0.348321
vt 0.295552 0.360152
vt 0.327109 0.377329
vt 0.353946 0.399190
vt 0.375032 0.424896
vt 0.396960 0.483782
vt 0.396960 0.514699
vt 0.389556 0.545021
vt 0.375032 0.573585
vt 0.353946 0.599291
vt 0.327109 0.621152
vt 0.295552 0.638329
vt 0.223265 0.656191
vt 0.185311 0.656191
vt 0.148088 0.650160
vt 0.113024 0.638329
vt 0.081467 0.621152
vt 0.054630 0.599291
vt 0.033544 0.573585
vn 0.0980 0.0000 -0.9952
vn 0.2903 0.0000 -0.9569
vn 0.4714 0.0000 -0.8819
vn 0.6344 0.0000 -0.7730
vn 0.7730 0.0000 -0.6344
vn 0.8819 0.0000 -0.4714
vn 0.9569 0.0000 -0.2903
vn 0.9952 0.0000 -0.0980
vn 0.9952 0.0000 0.0980
vn 0.9569 0.0000 0.2903
vn 0.8819 0.0000 0.4714
vn 0.7730 0.0000 0.6344
vn 0.6344 0.0000 0.7730
vn 0.4714 0.0000 0.8819
vn 0.2903 0.0000 0.9569
vn 0.0980 0.0000 0.9952
vn -0.0980 0.0000 0.9952
vn -0.2903 0.0000 0.9569
vn -0.4714 0.0000 0.8819
vn -0.6344 0.0000 0.7730
vn -0.7730 0.0000 0.6344
vn -0.8819 0.0000 0.4714
vn -0.9569 0.0000 0.2903
vn -0.9952 0.0000 0.0980
vn -0.9952 0.0000 -0.0980
vn -0.9569 0.0000 -0.2903
vn -0.8819 0.0000 -0.4714
vn -0.7730 0.0000 -0.6344
vn -0.6344 0.0000 -0.7730
vn -0.4714 0.0000 -0.8819
vn 0.0000 1.0000 0.0000
vn -0.2903 0.0000 -0.9569
vn -0.0980 0.0000 -0.9952
vn 0.0000 -1.0000 0.0000
f 2/1/1 3/2/1 1/3/1
f 4/4/2 5/5/2 3/2/2
f 6/6/3 7/7/3 5/5/3
f 8/8/4 9/9/4 7/7/4
f 10/10/5 11/11/5 9/9/5
f 12/12/6 13/13/6 11/14/6
f 14/15/7 15/16/7 13/13/7
f 16/17/8 17/18/8 15/16/8
f 18/19/9 19/20/9 17/18/9
f 20/21/10 21/22/10 19/20/10
f 22/23/11 23/24/11 21/22/11
f 24/25/12 25/26/12 23/24/12
f 26/27/13 27/28/13 25/29/13
f 28/30/14 29/31/14 27/28/14
f 30/32/15 31/33/15 29/31/15
f 32/34/16 33/35/16 31/33/16
f 34/36/17 35/37/17 33/35/17
f 36/38/18 37/39/18 35/37/18
f 38/40/19 39/41/19 37/39/19
f 40/42/20 41/43/20 39/41/20
f 42/44/21 43/45/21 41/46/21
f 44/47/22 45/48/22 43/45/22
f 46/49/23 47/50/23 45/48/23
f 48/51/24 49/52/24 47/50/24
f 50/53/25 51/54/25 49/52/25
f 52/55/26 53/56/26 51/54/26
f 54/57/27 55/58/27 53/56/27
f 56/59/28 57/60/28 55/58/28
f 58/61/29 59/62/29 57/63/29
f 60/64/30 61/65/30 59/62/30
f 30/66/31 22/67/31 6/68/31
f 62/69/32 63/70/32 61/65/32
f 64/71/33 1/3/33 63/70/33
f 31/72/34 47/73/34 15/74/34
f 2/1/1 4/4/1 3/2/1
f 4/4/2 6/6/2 5/5/2
f 6/6/3 8/8/3 7/7/3
f 8/8/4 10/10/4 9/9/4
f 10/10/5 12/75/5 11/11/5
f 12/12/6 14/15/6 13/13/6
f 14/15/7 16/17/7 15/16/7
f 16/17/8 18/19/8 17/18/8
f 18/19/9 20/21/9 19/20/9
f 20/21/10 22/23/10 21/22/10
f 22/23/11 24/25/11 23/24/11
f 24/25/12 26/76/12 25/26/12
f 26/27/13 28/30/13 27/28/13
f 28/30/14 30/32/14 29/31/14
f 30/32/15 32/34/15 31/33/15
f 32/34/16 34/36/16 33/35/16
f 34/36/17 36/38/17 35/37/17
f 36/38/18 38/40/18 37/39/18
f 38/40/19 40/42/19 39/41/19
f 40/42/20 42/77/20 41/43/20
f 42/44/21 44/47/21 43/45/21
f 44/47/22 46/49/22 45/48/22
f 46/49/23 48/51/23 47/50/23
f 48/51/24 50/53/24 49/52/24
f 50/53/25 52/55/25 51/54/25
f 52/55/26 54/57/26 53/56/26
f 54/57/27 56/59/27 55/58/27
f 56/59/28 58/78/28 57/60/28
f 58/61/29 60/64/29 59/62/29
f 60/64/30 62/69/30 61/65/30
f 6/68/31 4/79/31 2/80/31
f 2/80/31 64/81/31 6/68/31
f 62/82/31 60/83/31 58/84/31
f 58/84/31 56/85/31 54/86/31
f 54/86/31 52/87/31 50/88/31
f 50/88/31 48/89/31 54/86/31
f 46/90/31 44/91/31 38/92/31
f 42/93/31 40/94/31 38/92/31
f 38/92/31 36/95/31 34/96/31
f 34/96/31 32/97/31 38/92/31
f 30/66/31 28/98/31 26/99/31
f 26/99/31 24/100/31 22/67/31
f 22/67/31 20/101/31 18/102/31
f 18/102/31 16/103/31 14/104/31
f 14/104/31 12/105/31 10/106/31
f 10/106/31 8/107/31 6/68/31
f 6/68/31 64/81/31 62/82/31
f 62/82/31 58/84/31 6/68/31
f 54/86/31 48/89/31 46/90/31
f 44/91/31 42/93/31 38/92/31
f 38/92/31 32/97/31 30/66/31
f 30/66/31 26/99/31 22/67/31
f 22/67/31 18/102/31 14/104/31
f 14/104/31 10/106/31 22/67/31
f 6/68/31 58/84/31 54/86/31
f 54/86/31 46/90/31 38/92/31
f 38/92/31 30/66/31 6/68/31
f 22/67/31 10/106/31 6/68/31
f 6/68/31 54/86/31 38/92/31
f 62/69/32 64/71/32 63/70/32
f 64/71/33 2/1/33 1/3/33
f 63/108/34 1/109/34 3/110/34
f 3/110/34 5/111/34 7/112/34
f 7/112/34 9/113/34 11/114/34
f 11/114/34 13/115/34 7/112/34
f 15/74/34 17/116/34 19/117/34
f 19/117/34 21/118/34 15/74/34
f 23/119/34 25/120/34 31/72/34
f 27/121/34 29/122/34 31/72/34
f 31/72/34 33/123/34 35/124/34
f 35/124/34 37/125/34 31/72/34
f 39/126/34 41/127/34 43/128/34
f 43/128/34 45/129/34 47/73/34
f 47/73/34 49/130/34 51/131/34
f 51/131/34 53/132/34 55/133/34
f 55/133/34 57/134/34 63/108/34
f 59/135/34 61/136/34 63/108/34
f 63/108/34 3/110/34 15/74/34
f 7/112/34 13/115/34 15/74/34
f 15/74/34 21/118/34 23/119/34
f 25/120/34 27/121/34 31/72/34
f 31/72/34 37/125/34 39/126/34
f 39/126/34 43/128/34 47/73/34
f 47/73/34 51/131/34 63/108/34
f 57/134/34 59/135/34 63/108/34
f 3/110/34 7/112/34 15/74/34
f 15/74/34 23/119/34 31/72/34
f 31/72/34 39/126/34 47/73/34
f 51/131/34 55/133/34 63/108/34
f 63/108/34 15/74/34 47/73/34
