# Blender v2.79 (sub 0) OBJ File: 'flitri.blend'
# www.blender.org
v -0.027705 0.000012 -0.997733
v 0.972295 0.430451 -1.997733
v 1.024009 0.000012 -4.614846
v 1.972295 -0.333346 -0.669776
v 1.285794 -1.080994 -2.177258
v -0.027669 0.000000 1.002267
v 5.972331 -1.000000 0.002267
v -0.027669 0.000000 -0.997733
v 0.606728 -2.000000 0.002267
v -3.270688 -1.313499 -0.177258
v -0.166162 -1.243901 0.002267
v -2.812826 -0.396344 0.002267
v 0.067174 0.803656 1.202267
v 0.067174 0.803656 -1.197733
v 1.623823 -0.020145 -0.213164
v 3.033693 -0.494690 0.005010
v 4.674134 0.170557 0.002267
v 3.033693 -0.494690 -0.000475
v 5.988116 -1.015634 0.505941
v 5.988116 -1.015634 -0.500826
v 4.885783 -1.337174 -0.267021
v -0.027705 0.000012 1.002267
v 0.972295 0.430451 2.002267
v 1.024009 0.000012 4.619380
v 1.972295 -0.333346 0.674311
v 1.285794 -1.080994 2.181793
vt 0.537209 0.865791
vt 0.454139 0.762973
vt 0.504713 0.534755
vt 0.180329 0.908106
vt 0.128584 0.678965
vt 0.180330 0.558386
vt 0.383844 0.865791
vt 0.890456 0.311228
vt 0.890456 0.663763
vt 0.775488 0.619150
vt 0.201883 0.447630
vt 0.308397 0.005310
vt 0.383413 0.447630
vt 0.190977 0.005310
vt 0.190977 0.547765
vt 0.005453 0.103661
vt 0.394318 0.467016
vt 0.537209 0.005310
vt 0.537210 0.524134
vt 0.937503 0.674384
vt 0.937503 0.875974
vt 0.775488 0.754042
vt 0.548115 0.552102
vt 0.592030 0.311228
vt 0.764582 0.552102
vt 0.548115 0.224865
vt 0.751594 0.005310
vt 0.751594 0.300608
vt 0.895155 0.005310
vt 0.895155 0.282863
vt 0.762499 0.078982
vt 0.736598 0.562723
vt 0.736598 0.773783
vt 0.548115 0.666897
vt 0.368598 0.458251
vt 0.368598 0.614677
vt 0.368101 0.458253
vt 0.970987 0.269730
vt 0.906060 0.130199
vt 0.970987 0.005310
vt 0.650380 0.875545
vt 0.696101 0.784404
vt 0.741874 0.875545
vt 0.989752 0.580419
vt 0.901362 0.442133
vt 0.989751 0.311228
vt 0.639475 0.961679
vt 0.582604 0.784404
vt 0.583102 0.784404
vt 0.994547 0.994690
vt 0.994547 0.674384
vt 0.948408 0.904658
vt 0.117678 0.916823
vt 0.117678 0.558386
vt 0.036508 0.695778
vt 0.005453 0.616913
vt 0.357195 0.786952
vt 0.357195 0.458251
vt 0.201883 0.463035
vt 0.548115 0.961679
vn -0.5130 0.8453 -0.1492
vn 0.6876 0.7185 -0.1046
vn 0.0733 0.8874 0.4552
vn -0.1570 -0.9866 -0.0456
vn 0.1644 0.9864 0.0000
vn 0.0793 -0.4256 -0.9014
vn 0.0793 -0.4256 0.9014
vn -0.9532 -0.3024 0.0000
vn -0.1557 -0.4862 -0.8599
vn -0.3846 0.9231 0.0000
vn -0.1557 -0.4862 0.8599
vn 0.9936 -0.1132 0.0000
vn -0.3758 0.9267 0.0000
vn -0.1120 0.2802 -0.9534
vn 0.6701 0.7423 0.0000
vn -0.1122 0.2805 0.9533
vn -0.1736 -0.9848 0.0000
vn -0.5130 0.8453 0.1492
vn 0.6876 0.7185 0.1046
vn 0.0733 0.8874 -0.4552
vn -0.1570 -0.9866 0.0456
f 1/1/1 2/2/1 3/3/1
f 3/4/2 2/5/2 4/6/2
f 4/7/3 2/2/3 1/1/3
f 3/8/4 4/9/4 1/10/4
f 6/11/5 7/12/5 8/13/5
f 8/14/6 7/15/6 9/16/6
f 9/17/7 7/18/7 6/19/7
f 8/20/8 9/21/8 6/22/8
f 11/23/9 12/24/9 14/25/9
f 14/26/10 12/27/10 13/28/10
f 13/29/11 12/30/11 11/31/11
f 11/32/12 14/33/12 13/34/12
f 16/35/13 17/36/13 18/37/13
f 18/38/14 17/39/14 20/40/14
f 20/41/15 17/42/15 19/43/15
f 19/44/16 17/45/16 16/46/16
f 20/47/17 16/48/17 18/49/17
f 22/50/18 24/51/18 23/52/18
f 24/53/19 25/54/19 23/55/19
f 25/54/20 22/56/20 23/55/20
f 24/57/21 22/58/21 25/59/21
f 20/47/17 19/60/17 16/48/17
