# Blender v2.79 (sub 0) OBJ File: ''
# www.blender.org
v 0.027796 1.988877 1.003506
v 0.002100 -0.011114 0.000938
v 0.489723 1.988884 0.703739
v 0.834818 1.988861 0.406469
v 1.059043 1.988807 0.039556
v 1.056259 1.988886 -0.228824
v 0.923690 1.988844 -0.479843
v 0.494116 1.988875 -0.810095
v 0.070949 1.988856 -0.988056
v -0.109429 1.988876 -0.979742
v -0.499593 1.988841 -0.750365
v -0.893460 1.988872 -0.328969
v -1.032630 1.988824 0.016118
v -0.981099 1.988811 0.398001
v -0.769730 1.988886 0.673161
v -0.464866 1.988849 0.874868
vt 0.498688 0.791286
vt 0.875330 0.467754
vt 0.568066 0.852076
vt 0.639577 0.900833
vt 0.732681 0.940435
vt 0.804776 0.952413
vt 0.875330 0.950341
vt 0.465721 0.012882
vt 0.465721 0.483454
vt 0.345357 0.019771
vt 0.232497 0.040261
vt 0.187644 0.056813
vt 0.098815 0.112275
vt 0.016483 0.185896
vt 0.384973 0.513743
vt 0.384973 0.987118
vt 0.292999 0.509218
vt 0.189336 0.525991
vt 0.113045 0.556532
vt 0.055752 0.594830
vt 0.016483 0.650860
vt 0.498688 0.164929
vt 0.795282 0.024059
vt 0.512184 0.262147
vt 0.946714 0.377476
vt 0.864734 0.429819
vt 0.770695 0.441991
vt 0.671669 0.428935
vt 0.983517 0.302946
vt 0.548660 0.376886
vt 0.522515 0.074506
vt 0.647114 0.012882
vt 0.573419 0.032819
vt 0.913597 0.058183
vt 0.983517 0.179108
vt 0.948239 0.085931
vn 0.5006 -0.3931 0.7713
vn 0.6006 -0.3914 0.6972
vn 0.7749 -0.4187 0.4736
vn 0.8842 -0.4671 -0.0093
vn 0.7846 -0.4612 -0.4143
vn 0.5513 -0.4264 -0.7171
vn 0.3510 -0.4248 -0.8345
vn -0.0414 -0.4417 -0.8962
vn -0.4620 -0.4111 -0.7859
vn -0.6688 -0.4026 -0.6250
vn -0.8371 -0.4305 -0.3376
vn -0.8815 -0.4570 0.1189
vn -0.7062 -0.4549 0.5426
vn -0.4949 -0.4424 0.7479
vn -0.2276 -0.4340 0.8717
vn 0.0001 1.0000 -0.0000
vn -0.0005 1.0000 0.0001
vn -0.0000 1.0000 -0.0000
vn 0.0003 1.0000 0.0000
vn -0.0009 1.0000 0.0003
vn 0.0001 1.0000 0.0004
vn -0.0003 1.0000 0.0000
f 1/1/1 2/2/1 3/3/1
f 3/3/2 2/2/2 4/4/2
f 4/4/3 2/2/3 5/5/3
f 5/5/4 2/2/4 6/6/4
f 6/6/5 2/2/5 7/7/5
f 7/8/6 2/9/6 8/10/6
f 8/10/7 2/9/7 9/11/7
f 9/11/8 2/9/8 10/12/8
f 10/12/9 2/9/9 11/13/9
f 11/13/10 2/9/10 12/14/10
f 12/15/11 2/16/11 13/17/11
f 13/17/12 2/16/12 14/18/12
f 14/18/13 2/16/13 15/19/13
f 15/19/14 2/16/14 16/20/14
f 16/20/15 2/16/15 1/21/15
f 4/22/16 8/23/16 3/24/16
f 13/25/17 14/26/17 15/27/17
f 15/27/16 16/28/16 12/29/16
f 1/30/18 3/24/18 16/28/18
f 4/22/19 5/31/19 7/32/19
f 6/33/20 7/32/20 5/31/20
f 8/23/18 9/34/18 11/35/18
f 10/36/21 11/35/21 9/34/21
f 12/29/22 13/25/22 15/27/22
f 16/28/18 3/24/18 12/29/18
f 4/22/16 7/32/16 8/23/16
f 8/23/18 11/35/18 3/24/18
f 12/29/18 3/24/18 11/35/18
