# Blender v2.79 (sub 0) OBJ File: ''
# www.blender.org
v 0.000000 -1.000000 0.000000
v 0.038060 0.980785 -0.191342
v 0.162212 0.555570 -0.815493
v 0.191342 -0.195090 -0.961940
v 0.108386 -0.831470 -0.544895
v 0.308658 0.831470 -0.461940
v 0.544895 0.195090 -0.815493
v 0.461940 -0.555570 -0.691342
v 0.108386 -0.980785 -0.162211
v 0.162212 0.980785 -0.108386
v 0.691342 0.555570 -0.461940
v 0.815493 -0.195090 -0.544895
v 0.461940 -0.831470 -0.308658
v 0.544895 0.831470 -0.108386
v 0.961940 0.195090 -0.191341
v 0.815493 -0.555570 -0.162211
v 0.191342 -0.980785 -0.038060
v 0.191342 0.980785 0.038061
v 0.815493 0.555570 0.162212
v 0.961940 -0.195090 0.191342
v 0.544895 -0.831470 0.108387
v 0.461940 0.831470 0.308659
v 0.815493 0.195090 0.544895
v 0.691342 -0.555570 0.461940
v 0.162212 -0.980785 0.108387
v 0.108386 0.980785 0.162212
v 0.461940 0.555570 0.691342
v 0.544895 -0.195090 0.815493
v 0.308658 -0.831470 0.461940
v 0.108386 0.831470 0.544896
v 0.191342 0.195090 0.961940
v 0.162212 -0.555570 0.815493
v 0.038060 -0.980785 0.191342
v -0.038060 0.980785 0.191342
v -0.162212 0.555570 0.815493
v -0.191342 -0.195090 0.961940
v -0.108386 -0.831470 0.544895
v -0.000000 1.000000 0.000001
v -0.308658 0.831470 0.461940
v -0.544895 0.195090 0.815493
v -0.461940 -0.555570 0.691342
v -0.108386 -0.980785 0.162212
v -0.162212 0.980785 0.108387
v -0.691342 0.555570 0.461940
v -0.815493 -0.195090 0.544895
v -0.461940 -0.831470 0.308658
v -0.544895 0.831470 0.108387
v -0.961939 0.195090 0.191342
v -0.815493 -0.555570 0.162212
v -0.191342 -0.980785 0.038061
v -0.191342 0.980785 -0.038060
v -0.815493 0.555570 -0.162211
v -0.961939 -0.195090 -0.191342
v -0.544895 -0.831470 -0.108386
v -0.461940 0.831470 -0.308658
v -0.815493 0.195090 -0.544895
v -0.691341 -0.555570 -0.461939
v -0.162212 -0.980785 -0.108386
v -0.108386 0.980785 -0.162211
v -0.461939 0.555570 -0.691341
v -0.544895 -0.195090 -0.815492
v -0.308658 -0.831470 -0.461939
v -0.108386 0.831470 -0.544895
v -0.191341 0.195090 -0.961939
v -0.162211 -0.555570 -0.815492
v -0.038060 -0.980785 -0.191341
vt 0.515443 0.858277
vt 0.515858 0.822297
vt 0.599883 0.833467
vt 0.656185 0.603068
vt 0.512452 0.517612
vt 0.606176 0.503606
vt 0.656185 0.732934
vt 0.563657 0.613969
vt 0.757922 0.504000
vt 0.694717 0.584051
vt 0.694199 0.504890
vt 0.777208 0.744662
vt 0.681658 0.824302
vt 0.682177 0.707406
vt 0.888787 0.603342
vt 0.777208 0.606029
vt 0.564879 0.924321
vt 0.654417 0.886280
vt 0.856960 0.486034
vt 0.987263 0.605799
vt 0.893190 0.747341
vt 0.288177 0.151233
vt 0.276714 0.115126
vt 0.341649 0.118028
vt 0.781093 0.866924
vt 0.341649 0.224607
vt 0.281330 0.291916
vt 0.276714 0.184279
vt 0.337481 0.342046
vt 0.219533 0.387339
vt 0.494147 0.794384
vt 0.567063 0.734995
vt 0.367122 0.570599
vt 0.449736 0.486034
vt 0.431033 0.599072
vt 0.485644 0.686588
vt 0.196026 0.280527
vt 0.249039 0.194907
vt 0.269815 0.444017
vt 0.119222 0.423912
vt 0.101584 0.310551
vt 0.463029 0.790889
vt 0.214943 0.514534
vt 0.107730 0.647323
vt 0.099782 0.525059
vt 0.315691 0.568390
vt 0.218514 0.633455
vt 0.012737 0.276652
vt 0.403321 0.716603
vt 0.135707 0.197112
vt 0.221364 0.176890
vt 0.052728 0.156664
vt 0.440732 0.813859
vt 0.147747 0.776399
vt 0.060702 0.826092
vt 0.016307 0.693672
vt 0.012737 0.574752
vt 0.306796 0.677787
vt 0.246065 0.753007
vt 0.135707 0.090533
vt 0.209901 0.140783
vt 0.440318 0.849839
vt 0.368318 0.807457
vt 0.101584 0.015822
vt 0.144846 0.913487
vt 0.367122 0.320114
vt 0.471368 0.190033
vt 0.464990 0.333918
vt 0.219426 0.854271
vt 0.394027 0.446436
vt 0.487911 0.454391
vt 0.196026 0.023224
vt 0.221364 0.107736
vt 0.462028 0.877752
vt 0.401138 0.905929
vt 0.576287 0.344114
vt 0.587864 0.447926
vt 0.591920 0.083898
vt 0.586649 0.206079
vt 0.242483 0.922261
vt 0.377484 0.182079
vt 0.480622 0.073702
vt 0.656779 0.375511
vt 0.651378 0.454391
vt 0.493146 0.881248
vt 0.482556 0.954335
vt 0.678485 0.254136
vt 0.249039 0.097109
vt 0.566322 0.015822
vt 0.559387 0.984178
vt 0.687739 0.137805
vt 0.714041 0.336837
vt 0.675357 0.433279
vt 0.281330 0.034613
vt 0.987264 0.744432
vt 0.892672 0.864238
vt 0.477314 0.838076
vt 0.250372 0.144520
vt 0.167443 0.482890
vt 0.028313 0.392313
vt 0.315691 0.783086
vt 0.012737 0.088502
vt 0.299087 0.816626
vt 0.298406 0.848791
vt 0.398082 0.082407
vt 0.466369 0.022286
vt 0.974204 0.846049
vn 0.2054 0.9292 -0.3074
vn 0.9633 0.1879 0.1916
vn 0.8448 0.5080 -0.1680
vn 0.2360 -0.9053 -0.3532
vn 0.9604 -0.2028 -0.1910
vn 0.5440 -0.2028 -0.8142
vn 0.1278 0.7555 -0.6425
vn 0.1545 -0.6104 -0.7769
vn 0.1916 0.1879 -0.9633
vn 0.0721 -0.9292 -0.3625
vn 0.8167 0.1879 -0.5457
vn 0.4167 -0.9053 -0.0829
vn 0.3074 -0.9292 -0.2054
vn 0.7769 -0.6104 0.1545
vn 0.3625 0.9292 -0.0721
vn 0.5457 0.1879 0.8167
vn 0.7162 0.5080 0.4785
vn 0.6425 0.7555 0.1278
vn 0.3532 -0.9053 0.2360
vn 0.8142 -0.2028 0.5440
vn 0.4401 -0.6104 0.6586
vn 0.3074 0.9292 0.2054
vn 0.3625 -0.9292 0.0721
vn -0.1916 0.1879 0.9633
vn 0.1680 0.5080 0.8448
vn 0.1910 -0.2028 0.9604
vn 0.3640 0.7555 0.5447
vn 0.0829 -0.9053 0.4167
vn -0.1545 -0.6104 0.7769
vn 0.0721 0.9292 0.3625
vn 0.2054 -0.9292 0.3074
vn -0.4785 0.5080 0.7162
vn -0.8167 0.1879 0.5457
vn -0.5440 -0.2028 0.8142
vn -0.1278 0.7555 0.6425
vn -0.2360 -0.9053 0.3532
vn -0.2054 0.9292 0.3074
vn -0.0721 -0.9292 0.3625
vn -0.6586 -0.6104 0.4401
vn -0.8448 0.5080 0.1680
vn -0.9633 0.1879 -0.1916
vn -0.5447 0.7555 0.3640
vn -0.9604 -0.2028 0.1910
vn -0.4167 -0.9053 0.0829
vn -0.3625 0.9292 0.0721
vn -0.3074 -0.9292 0.2054
vn -0.7769 -0.6104 -0.1545
vn -0.5457 0.1879 -0.8167
vn -0.6425 0.7555 -0.1278
vn -0.7162 0.5080 -0.4785
vn -0.8142 -0.2028 -0.5440
vn -0.3532 -0.9053 -0.2360
vn -0.3074 0.9292 -0.2054
vn -0.4401 -0.6104 -0.6586
vn -0.3625 -0.9292 -0.0721
vn -0.1680 0.5080 -0.8448
vn -0.3640 0.7555 -0.5447
vn -0.1910 -0.2028 -0.9604
vn -0.0829 -0.9053 -0.4167
vn -0.2054 -0.9292 -0.3074
vn -0.0721 0.9292 -0.3625
vn 0.5447 0.7555 -0.3640
vn 0.4785 0.5080 -0.7162
vn 0.6586 -0.6104 -0.4401
vn 0.0589 0.9944 -0.0881
vn 0.9604 0.2028 0.1910
vn 0.7769 0.6104 -0.1545
vn 0.3640 -0.7555 -0.5447
vn 0.9633 -0.1879 -0.1916
vn 0.5457 -0.1879 -0.8167
vn 0.0829 0.9053 -0.4167
vn 0.1680 -0.5080 -0.8448
vn 0.1910 0.2028 -0.9604
vn 0.0207 -0.9944 -0.1040
vn 0.8142 0.2028 -0.5440
vn 0.6425 -0.7555 -0.1278
vn 0.0881 -0.9944 -0.0589
vn 0.8448 -0.5080 0.1680
vn 0.1040 0.9944 -0.0207
vn 0.5440 0.2028 0.8142
vn 0.6586 0.6104 0.4401
vn 0.4167 0.9053 0.0829
vn 0.5447 -0.7555 0.3640
vn 0.8167 -0.1879 0.5457
vn 0.4785 -0.5080 0.7162
vn 0.0881 0.9944 0.0589
vn 0.1040 -0.9944 0.0207
vn -0.1910 0.2028 0.9604
vn 0.1545 0.6104 0.7769
vn 0.1916 -0.1879 0.9633
vn 0.2360 0.9053 0.3532
vn 0.1278 -0.7555 0.6425
vn -0.1680 -0.5080 0.8448
vn 0.0207 0.9944 0.1040
vn 0.0589 -0.9944 0.0881
vn -0.4401 0.6104 0.6586
vn -0.8142 0.2028 0.5440
vn -0.5457 -0.1879 0.8167
vn -0.0829 0.9053 0.4167
vn -0.3640 -0.7555 0.5447
vn -0.0589 0.9944 0.0881
vn -0.0207 -0.9944 0.1040
vn -0.7162 -0.5080 0.4785
vn -0.7769 0.6104 0.1545
vn -0.9604 0.2028 -0.1910
vn -0.3532 0.9053 0.2360
vn -0.9633 -0.1879 0.1916
vn -0.6425 -0.7555 0.1278
vn -0.1040 0.9944 0.0207
vn -0.0881 -0.9944 0.0589
vn -0.8448 -0.5080 -0.1680
vn -0.5440 0.2028 -0.8142
vn -0.4167 0.9053 -0.0829
vn -0.6586 0.6104 -0.4401
vn -0.8167 -0.1879 -0.5457
vn -0.5447 -0.7555 -0.3640
vn -0.0881 0.9944 -0.0589
vn -0.4785 -0.5080 -0.7162
vn -0.1040 -0.9944 -0.0207
vn -0.1545 0.6104 -0.7769
vn -0.2360 0.9053 -0.3532
vn -0.1916 -0.1879 -0.9633
vn -0.1278 -0.7555 -0.6425
vn -0.0589 -0.9944 -0.0881
vn -0.0207 0.9944 -0.1040
vn 0.3532 0.9053 -0.2360
vn 0.4401 0.6104 -0.6586
vn 0.7162 -0.5080 -0.4785
f 2/1/1 10/2/1 6/3/1
f 15/4/2 23/5/2 20/6/2
f 11/7/3 19/8/3 15/4/3
f 5/9/4 13/10/4 9/11/4
f 12/12/5 20/13/5 16/14/5
f 4/15/6 12/12/6 8/16/6
f 63/17/7 6/3/7 3/18/7
f 65/19/8 8/16/8 5/9/8
f 64/20/9 7/21/9 4/15/9
f 9/22/10 66/23/10 5/24/10
f 7/21/11 15/25/11 12/12/11
f 13/26/12 21/27/12 17/28/12
f 17/28/13 9/22/13 13/26/13
f 16/29/14 24/30/14 21/27/14
f 10/2/15 18/31/15 14/32/15
f 23/5/16 31/33/16 28/34/16
f 19/8/17 27/35/17 23/5/17
f 14/32/18 22/36/18 19/8/18
f 21/27/19 29/37/19 25/38/19
f 20/39/20 28/40/20 24/30/20
f 24/30/21 32/41/21 29/37/21
f 18/31/22 26/42/22 22/36/22
f 25/38/23 17/28/23 21/27/23
f 31/43/24 40/44/24 36/45/24
f 27/46/25 35/47/25 31/43/25
f 28/40/26 36/48/26 32/41/26
f 22/36/27 30/49/27 27/35/27
f 29/37/28 37/50/28 33/51/28
f 32/41/29 41/52/29 37/50/29
f 26/42/30 34/53/30 30/49/30
f 33/51/31 25/38/31 29/37/31
f 35/47/32 44/54/32 40/44/32
f 40/44/33 48/55/33 45/56/33
f 36/45/34 45/56/34 41/57/34
f 30/58/35 39/59/35 35/47/35
f 37/50/36 46/60/36 42/61/36
f 34/53/37 43/62/37 39/63/37
f 42/61/38 33/51/38 37/50/38
f 41/52/39 49/64/39 46/60/39
f 44/54/40 52/65/40 48/55/40
f 48/66/41 56/67/41 53/68/41
f 39/59/42 47/69/42 44/54/42
f 45/70/43 53/68/43 49/71/43
f 46/60/44 54/72/44 50/73/44
f 43/62/45 51/74/45 47/75/45
f 50/73/46 42/61/46 46/60/46
f 49/71/47 57/76/47 54/77/47
f 56/67/48 64/78/48 61/79/48
f 47/69/49 55/80/49 52/65/49
f 52/81/50 60/82/50 56/67/50
f 53/68/51 61/79/51 57/76/51
f 54/77/52 62/83/52 58/84/52
f 51/74/53 59/85/53 55/86/53
f 57/76/54 65/87/54 62/83/54
f 58/88/55 50/73/55 54/72/55
f 60/82/56 3/89/56 64/78/56
f 55/86/57 63/17/57 60/90/57
f 61/79/58 4/91/58 65/87/58
f 62/83/59 5/92/59 66/93/59
f 66/23/60 58/88/60 62/94/60
f 59/85/61 2/1/61 63/17/61
f 6/3/62 14/32/62 11/7/62
f 3/95/63 11/96/63 7/21/63
f 8/16/64 16/14/64 13/10/64
f 2/1/65 38/97/65 10/2/65
f 15/4/66 19/8/66 23/5/66
f 11/7/67 14/32/67 19/8/67
f 5/9/68 8/16/68 13/10/68
f 12/12/69 15/25/69 20/13/69
f 4/15/70 7/21/70 12/12/70
f 63/17/71 2/1/71 6/3/71
f 65/19/72 4/15/72 8/16/72
f 64/20/73 3/95/73 7/21/73
f 9/22/74 1/98/74 66/23/74
f 7/21/75 11/96/75 15/25/75
f 13/26/76 16/29/76 21/27/76
f 17/28/77 1/98/77 9/22/77
f 16/29/78 20/39/78 24/30/78
f 10/2/79 38/97/79 18/31/79
f 23/5/80 27/35/80 31/33/80
f 19/8/81 22/36/81 27/35/81
f 14/32/82 18/31/82 22/36/82
f 21/27/83 24/30/83 29/37/83
f 20/39/84 23/99/84 28/40/84
f 24/30/85 28/40/85 32/41/85
f 18/31/86 38/97/86 26/42/86
f 25/38/87 1/98/87 17/28/87
f 31/43/88 35/47/88 40/44/88
f 27/46/89 30/58/89 35/47/89
f 28/40/90 31/100/90 36/48/90
f 22/36/91 26/42/91 30/49/91
f 29/37/92 32/41/92 37/50/92
f 32/41/93 36/48/93 41/52/93
f 26/42/94 38/97/94 34/53/94
f 33/51/95 1/98/95 25/38/95
f 35/47/96 39/59/96 44/54/96
f 40/44/97 44/54/97 48/55/97
f 36/45/98 40/44/98 45/56/98
f 30/58/99 34/101/99 39/59/99
f 37/50/100 41/52/100 46/60/100
f 34/53/101 38/97/101 43/62/101
f 42/61/102 1/98/102 33/51/102
f 41/52/103 45/102/103 49/64/103
f 44/54/104 47/69/104 52/65/104
f 48/66/105 52/81/105 56/67/105
f 39/59/106 43/103/106 47/69/106
f 45/70/107 48/66/107 53/68/107
f 46/60/108 49/64/108 54/72/108
f 43/62/109 38/97/109 51/74/109
f 50/73/110 1/98/110 42/61/110
f 49/71/111 53/68/111 57/76/111
f 56/67/112 60/82/112 64/78/112
f 47/69/113 51/104/113 55/80/113
f 52/81/114 55/105/114 60/82/114
f 53/68/115 56/67/115 61/79/115
f 54/77/116 57/76/116 62/83/116
f 51/74/117 38/97/117 59/85/117
f 57/76/118 61/79/118 65/87/118
f 58/88/119 1/98/119 50/73/119
f 60/82/120 63/106/120 3/89/120
f 55/86/121 59/85/121 63/17/121
f 61/79/122 64/78/122 4/91/122
f 62/83/123 65/87/123 5/92/123
f 66/23/124 1/98/124 58/88/124
f 59/85/125 38/97/125 2/1/125
f 6/3/126 10/2/126 14/32/126
f 3/95/127 6/107/127 11/96/127
f 8/16/128 12/12/128 16/14/128
